<svg width="24" height="24" viewBox="0 0 24 24" fill="none" xmlns="http://www.w3.org/2000/svg">
<circle cx="12" cy="6" r="4" stroke="#B8C1CC" stroke-width="2"/>
<path d="M12 13C16.502 13 20 16.3261 20 20.25V20.251C19.9999 20.2515 19.9998 20.2532 19.999 20.2559C19.9972 20.2618 19.9904 20.2774 19.9736 20.3037C19.9374 20.3605 19.8584 20.4538 19.7002 20.5703C19.3764 20.8086 18.8409 21.0606 18.0811 21.2852C16.5734 21.7307 14.4252 22 12 22C9.57485 22 7.42665 21.7307 5.91895 21.2852C5.15911 21.0606 4.62363 20.8086 4.2998 20.5703C4.14157 20.4538 4.0626 20.3605 4.02637 20.3037C4.0096 20.2774 4.00285 20.2618 4.00098 20.2559C4.00003 20.2528 4.00003 20.2502 4 20.25C4 16.3261 7.49804 13 12 13Z" stroke="#B8C1CC" stroke-width="2"/>
</svg>
